<?xml version="1.0" standalone="no"?>
<!DOCTYPE svg PUBLIC "-//W3C//DTD SVG 20010904//EN"
 "http://www.w3.org/TR/2001/REC-SVG-20010904/DTD/svg10.dtd">
<svg version="1.0" xmlns="http://www.w3.org/2000/svg"
 width="505.000000pt" height="494.000000pt" viewBox="0 0 505.000000 494.000000"
 preserveAspectRatio="xMidYMid meet">

<g transform="translate(0.000000,494.000000) scale(0.100000,-0.100000)"
fill="#000000" stroke="none">
<path d="M2380 3715 c-196 -29 -361 -93 -540 -210 -138 -91 -326 -301 -404
-452 l-16 -33 73 -57 c142 -113 347 -266 350 -262 2 2 16 31 32 64 78 164 210
299 362 370 110 51 174 67 298 72 102 5 134 2 205 -16 91 -22 184 -65 258
-118 l46 -32 185 185 185 186 -34 29 c-266 221 -649 326 -1000 274z"/>
<path d="M2577 2673 c-4 -3 -7 -114 -7 -245 l0 -238 345 0 c190 0 345 -3 345
-7 0 -29 -44 -142 -73 -190 -123 -201 -339 -308 -614 -305 -185 1 -325 47
-463 151 -30 22 -57 41 -60 41 -3 -1 -69 -97 -147 -215 l-142 -214 37 -29
c126 -99 318 -187 497 -228 65 -15 119 -19 285 -18 191 0 212 2 305 28 455
124 764 447 873 911 23 98 26 130 26 305 0 107 -5 209 -10 225 l-10 30 -590 3
c-325 1 -594 -1 -597 -5z"/>
</g>
</svg>
