<?xml version="1.0" standalone="no"?>
<!DOCTYPE svg PUBLIC "-//W3C//DTD SVG 20010904//EN"
 "http://www.w3.org/TR/2001/REC-SVG-20010904/DTD/svg10.dtd">
<svg version="1.0" xmlns="http://www.w3.org/2000/svg"
 width="351.000000pt" height="259.000000pt" viewBox="0 0 351.000000 259.000000"
 preserveAspectRatio="xMidYMid meet">

<g transform="translate(0.000000,259.000000) scale(0.100000,-0.100000)"
fill="#000000" stroke="none">
<path d="M0 341 l0 -311 90 0 90 0 0 235 0 235 89 0 c75 0 93 -3 122 -23 50
-34 58 -68 58 -269 l1 -178 85 0 85 0 0 203 c0 279 -17 329 -128 384 -56 28
-60 28 -274 31 l-218 4 0 -311z"/>
<path d="M650 648 c0 -2 44 -140 98 -308 l98 -305 129 0 128 0 93 285 c51 157
96 295 99 308 5 22 4 22 -83 22 l-87 0 -69 -232 c-38 -128 -72 -236 -76 -241
-3 -4 -37 101 -74 233 l-69 240 -93 0 c-52 0 -94 -1 -94 -2z"/>
<path d="M1380 340 l0 -310 85 0 85 0 0 310 0 310 -85 0 -85 0 0 -310z"/>
<path d="M1660 341 l0 -311 188 0 c208 0 267 10 322 57 67 56 100 186 81 314
-14 88 -39 137 -91 182 -58 49 -100 58 -312 64 l-188 5 0 -311z m333 155 c70
-30 105 -109 88 -200 -17 -92 -63 -126 -178 -134 l-73 -5 0 177 0 176 65 0
c36 0 80 -6 98 -14z"/>
<path d="M2340 340 l0 -310 85 0 85 0 0 310 0 310 -85 0 -85 0 0 -310z"/>
<path d="M2821 628 c-5 -13 -57 -144 -116 -293 -59 -148 -110 -278 -112 -287
-5 -16 4 -18 80 -18 l86 0 17 55 18 55 146 0 146 0 18 -55 17 -55 93 0 94 0
-122 308 -122 307 -117 3 c-114 3 -117 2 -126 -20z m219 -369 c0 -5 -45 -9
-100 -9 -55 0 -100 3 -100 8 0 5 41 118 96 262 5 13 104 -236 104 -261z"/>
<path d="M3394 156 c-39 -17 -46 -28 -46 -73 0 -49 30 -78 83 -78 50 0 79 30
79 81 0 32 -28 74 -49 74 -5 0 -15 2 -23 5 -7 2 -27 -2 -44 -9z m84 -34 c28
-37 -2 -102 -48 -102 -27 0 -60 35 -60 63 0 59 72 85 108 39z"/>
<path d="M3400 85 c0 -25 5 -45 10 -45 6 0 10 8 10 18 1 16 1 16 14 0 7 -10
19 -18 26 -18 10 0 10 3 0 15 -10 12 -10 18 0 30 17 20 -3 45 -36 45 -22 0
-24 -4 -24 -45z m45 15 c-3 -5 -10 -10 -16 -10 -5 0 -9 5 -9 10 0 6 7 10 16
10 8 0 12 -4 9 -10z"/>
</g>
</svg>
